<?xml version="1.0" standalone="no"?>
<!DOCTYPE svg PUBLIC "-//W3C//DTD SVG 20010904//EN"
 "http://www.w3.org/TR/2001/REC-SVG-20010904/DTD/svg10.dtd">
<svg version="1.0" xmlns="http://www.w3.org/2000/svg"
 width="288.000000pt" height="290.000000pt" viewBox="0 0 288.000000 290.000000"
 preserveAspectRatio="xMidYMid meet">
<metadata>
Created by potrace 1.10, written by Peter Selinger 2001-2011
</metadata>
<g transform="translate(0.000000,290.000000) scale(0.100000,-0.100000)"
fill="#000000" stroke="none">
<path d="M1762 2890 c2 -7 -8 -17 -22 -21 -14 -4 -18 -8 -10 -9 8 -1 -4 -10
-27 -20 -24 -11 -43 -24 -43 -30 0 -5 -5 -10 -11 -10 -12 0 -174 -160 -162
-160 4 0 3 -4 -3 -8 -6 -4 -28 -34 -49 -67 -21 -33 -46 -66 -54 -72 -14 -11
-14 -14 -1 -23 12 -8 13 -10 1 -10 -8 0 -11 -3 -8 -7 4 -3 3 -11 -2 -17 -5 -6
-19 -52 -32 -101 -26 -106 -31 -275 -11 -345 7 -25 21 -70 30 -100 9 -30 16
-58 14 -62 -1 -5 2 -8 6 -8 5 0 17 -20 28 -45 10 -25 22 -45 27 -45 5 0 7 -9
4 -21 -4 -15 -2 -19 8 -15 10 3 12 0 8 -12 -3 -9 -2 -14 2 -10 11 11 38 -29
29 -44 -4 -6 -3 -8 3 -5 5 3 28 -12 51 -34 23 -21 40 -39 37 -39 -3 0 0 -6 7
-14 7 -8 16 -12 20 -9 4 2 5 -3 2 -11 -5 -12 -9 -11 -25 5 -10 10 -20 22 -20
27 -1 4 -16 16 -34 27 -18 11 -30 25 -28 31 2 7 -7 10 -24 8 -15 -2 -22 -1
-16 2 10 4 10 9 -1 20 -8 8 -20 14 -26 14 -6 0 -8 5 -5 10 3 6 2 10 -3 10 -12
0 -82 69 -82 80 0 5 6 11 13 14 6 3 2 3 -11 0 -18 -4 -36 8 -89 58 -118 113
-141 137 -135 142 3 3 0 6 -7 6 -18 0 -91 61 -85 71 3 5 -4 9 -15 9 -12 0 -21
4 -21 10 0 5 -8 19 -17 30 -13 14 -20 17 -30 8 -10 -8 -12 -7 -7 5 4 12 -2 20
-20 29 -20 8 -23 14 -14 21 9 6 6 7 -9 4 -17 -4 -21 -1 -18 14 2 11 0 17 -6
14 -5 -4 -9 2 -10 12 0 10 -3 13 -5 6 -4 -8 -10 -7 -23 5 -11 11 -13 20 -7 24
7 5 4 8 -6 8 -17 0 -95 70 -91 82 2 4 -5 4 -15 1 -9 -3 -14 -3 -10 1 6 7 -23
36 -101 102 -19 16 -53 48 -76 71 -24 23 -46 39 -49 36 -3 -4 -6 1 -6 9 0 22
-71 39 -102 24 -28 -14 -61 -79 -62 -123 -1 -17 -4 -29 -8 -27 -8 5 -17 -37
-20 -91 -1 -22 -5 -45 -10 -51 -15 -20 6 -329 23 -340 5 -3 9 -18 9 -34 0 -16
9 -51 19 -79 11 -27 17 -52 13 -56 -4 -3 0 -10 9 -15 9 -5 26 -36 39 -69 13
-33 28 -57 34 -54 5 4 7 -3 4 -15 -4 -15 -2 -22 9 -22 8 0 11 -4 8 -10 -3 -5
-1 -10 6 -10 7 0 10 -3 6 -6 -3 -3 6 -17 21 -31 15 -14 27 -28 27 -31 0 -7 4
-12 87 -98 66 -69 96 -94 108 -94 6 0 9 -4 6 -9 -4 -5 7 -15 23 -22 17 -8 25
-16 20 -20 -7 -4 -4 -9 5 -12 9 -4 16 -1 16 6 0 8 3 8 8 2 11 -17 184 -119
194 -115 2 1 20 -6 40 -14 21 -9 42 -16 48 -16 6 0 8 -5 4 -12 -4 -7 -3 -8 5
-4 6 4 40 -1 74 -12 34 -11 82 -22 107 -23 25 -1 52 -6 61 -10 8 -4 62 -10
120 -13 106 -6 280 11 418 40 42 9 3 24 -59 23 -40 0 -49 -3 -35 -9 14 -6 -7
-9 -65 -10 -62 -2 -77 -4 -55 -10 17 -4 -45 -8 -145 -8 -100 0 -162 4 -145 8
21 5 2 8 -65 10 -67 2 -86 5 -65 10 25 6 19 8 -30 10 -44 1 -55 4 -40 10 15 6
7 9 -30 9 -36 1 -46 4 -35 11 11 7 3 10 -30 11 -38 1 -41 2 -20 9 21 7 19 8
-17 9 -24 1 -43 6 -43 11 0 6 -9 10 -20 10 -11 0 -20 5 -20 10 0 6 -10 10 -22
10 -19 0 -20 2 -8 10 11 7 6 10 -20 10 -26 0 -31 3 -20 10 11 7 6 10 -20 10
-26 0 -31 3 -20 10 12 8 11 10 -7 10 -13 0 -23 5 -23 10 0 6 -10 10 -22 10
-19 0 -20 2 -8 10 13 8 12 10 -3 10 -10 0 -36 18 -57 40 -20 21 -40 36 -44 33
-3 -4 -6 1 -6 10 0 10 -8 17 -20 17 -14 0 -20 7 -21 23 0 12 -3 17 -6 10 -3
-10 -7 -10 -18 0 -9 9 -10 14 -1 19 7 5 4 8 -8 8 -11 0 -17 3 -13 6 3 4 -12
24 -33 44 -22 21 -40 46 -40 54 0 9 -4 16 -10 16 -5 0 -10 10 -10 23 0 18 -2
19 -10 7 -8 -12 -10 -11 -10 8 0 12 -4 22 -10 22 -5 0 -10 9 -10 20 0 11 -4
20 -10 20 -5 0 -10 12 -10 26 0 14 -4 23 -10 19 -6 -4 -10 8 -11 27 0 27 -2
30 -9 13 -7 -15 -9 -10 -10 25 -1 35 -3 40 -10 25 -7 -17 -9 -15 -9 13 -1 17
-5 32 -11 32 -5 0 -10 26 -11 58 0 41 -3 51 -9 37 -5 -12 -8 76 -8 215 0 129
4 219 8 200 6 -29 8 -21 10 40 2 61 4 69 10 40 7 -34 7 -34 9 13 0 29 5 46 11
42 6 -3 10 3 10 14 0 19 6 21 53 21 37 0 48 -3 37 -10 -12 -8 -10 -10 10 -10
20 0 22 -2 10 -10 -12 -8 -10 -10 10 -10 20 0 22 -2 10 -10 -13 -8 -12 -10 3
-10 10 0 53 -36 97 -80 44 -44 84 -80 90 -80 6 0 8 -4 5 -10 -3 -6 4 -10 17
-10 18 0 20 -2 8 -10 -12 -8 -10 -10 10 -10 20 0 22 -2 10 -10 -13 -8 -12 -10
3 -10 10 0 62 -45 117 -100 57 -57 101 -94 103 -87 3 7 6 1 6 -13 1 -20 3 -22
11 -10 8 12 10 10 11 -10 0 -14 3 -20 6 -13 2 7 41 -25 93 -77 49 -50 94 -90
100 -90 6 0 8 -4 5 -10 -3 -5 3 -10 14 -10 14 0 21 -6 21 -20 0 -11 7 -20 15
-20 9 0 69 -54 135 -120 66 -66 120 -116 120 -110 0 7 5 6 14 -2 10 -9 11 -15
2 -20 -6 -5 0 -8 14 -8 20 0 22 -2 10 -10 -13 -8 -12 -10 3 -10 10 0 53 -36
97 -80 44 -44 86 -80 95 -80 9 0 15 -9 15 -22 0 -19 2 -20 10 -8 8 12 10 11
10 -7 0 -17 6 -23 23 -23 18 0 19 -2 7 -10 -13 -8 -12 -10 3 -10 10 0 33 -16
52 -35 40 -39 50 -100 18 -108 -11 -3 -7 -5 10 -6 17 -1 26 3 22 9 -3 6 -1 10
4 10 12 0 15 48 5 74 -3 8 -12 12 -20 9 -8 -3 -14 -1 -12 4 5 15 -72 82 -88
76 -9 -3 -12 0 -9 9 4 9 -8 27 -29 46 -19 16 -32 33 -29 36 4 3 0 6 -8 6 -16
0 -49 34 -49 50 0 6 -4 10 -10 10 -5 0 -10 4 -10 10 0 5 15 -1 34 -13 18 -12
31 -26 28 -31 -3 -5 0 -6 5 -3 6 4 22 -2 35 -13 14 -11 28 -16 32 -13 3 3 6 1
6 -6 0 -8 6 -11 16 -7 8 3 13 2 10 -3 -10 -16 20 -20 63 -9 22 6 41 16 41 23
0 8 6 15 12 17 10 4 13 162 13 726 0 825 10 748 -97 751 -46 1 -58 -1 -52 -11
5 -9 2 -9 -10 1 -14 11 -16 12 -14 1z m138 -740 l0 -730 -58 0 c-46 0 -60 4
-72 20 -8 11 -21 20 -30 20 -9 0 -22 9 -30 20 -8 11 -20 20 -27 20 -20 0 -183
167 -183 187 0 15 -2 16 -10 3 -8 -12 -10 -11 -10 8 0 12 -4 22 -10 22 -5 0
-10 10 -10 23 0 18 -2 19 -10 7 -7 -11 -10 -6 -10 20 0 26 -3 31 -10 20 -7
-11 -10 -6 -10 20 0 26 -3 31 -10 20 -7 -11 -10 -3 -11 30 -1 38 -2 41 -9 20
-6 -19 -8 -11 -10 35 -1 43 -4 54 -10 40 -6 -14 -9 7 -11 65 -2 73 -3 79 -9
40 -5 -30 -7 -4 -7 80 0 81 2 111 7 85 6 -32 8 -22 10 50 2 65 4 82 10 60 6
-24 8 -19 9 30 1 43 4 56 11 45 7 -11 10 -7 10 18 0 17 5 32 10 32 6 0 10 9
10 20 0 11 5 20 10 20 6 0 10 10 10 23 0 18 2 19 10 7 8 -12 10 -11 10 8 0 12
5 22 10 22 6 0 10 10 10 23 0 18 2 19 10 7 8 -12 10 -11 10 8 0 12 5 22 10 22
6 0 10 10 10 23 0 18 2 19 10 7 8 -13 10 -12 10 3 0 25 26 52 33 34 3 -6 6 -1
6 13 1 20 3 22 11 10 8 -12 10 -11 10 8 0 16 6 22 23 22 18 0 19 2 7 10 -12 8
-11 10 5 10 11 0 27 9 35 20 8 11 24 20 35 20 16 0 17 2 5 10 -12 8 -11 10 8
10 12 0 22 5 22 10 0 6 9 10 20 10 11 0 20 5 20 10 0 6 9 10 20 10 11 0 20 5
20 10 0 6 18 10 40 10 l40 0 0 -730z m-1487 403 c-7 -2 -19 -2 -25 0 -7 3 -2
5 12 5 14 0 19 -2 13 -5z m-126 -450 c-2 -32 -3 -8 -3 52 0 61 1 87 3 58 2
-29 2 -78 0 -110z m1337 -608 c3 -8 1 -15 -4 -15 -6 0 -10 7 -10 15 0 8 2 15
4 15 2 0 6 -7 10 -15z m244 -92 c-10 -2 -26 -2 -35 0 -10 3 -2 5 17 5 19 0 27
-2 18 -5z m29 -235 c-3 -7 -5 -2 -5 12 0 14 2 19 5 13 2 -7 2 -19 0 -25z m-60
-84 c-3 -3 -12 -4 -19 -1 -8 3 -5 6 6 6 11 1 17 -2 13 -5z"/>
<path d="M1561 2594 c0 -11 3 -14 6 -6 3 7 2 16 -1 19 -3 4 -6 -2 -5 -13z"/>
<path d="M1528 2593 c7 -3 16 -2 19 1 4 3 -2 6 -13 5 -11 0 -14 -3 -6 -6z"/>
<path d="M1421 2274 c0 -11 3 -14 6 -6 3 7 2 16 -1 19 -3 4 -6 -2 -5 -13z"/>
<path d="M1353 2145 c0 -22 2 -30 4 -17 2 12 2 30 0 40 -3 9 -5 -1 -4 -23z"/>
<path d="M1417 1939 c7 -7 15 -10 18 -7 3 3 -2 9 -12 12 -14 6 -15 5 -6 -5z"/>
<path d="M1541 1676 c2 -2 18 -6 34 -10 22 -5 26 -4 15 4 -14 9 -59 15 -49 6z"/>
<path d="M1640 1600 c-23 -7 -23 -8 -3 -9 12 -1 25 4 28 9 3 6 5 10 3 9 -2 -1
-14 -5 -28 -9z"/>
<path d="M2515 2150 c-3 -6 -16 -10 -28 -10 -25 0 -150 -39 -128 -39 17 -1 9
-11 -11 -15 -31 -5 -58 -18 -58 -27 0 -6 -4 -8 -9 -4 -5 3 -16 -2 -24 -10 -9
-8 -20 -15 -26 -15 -5 0 -17 -9 -25 -21 -8 -12 -19 -18 -25 -15 -5 4 -12 2
-16 -4 -3 -5 0 -10 7 -11 7 0 3 -4 -10 -9 -12 -5 -26 -18 -30 -29 -4 -11 -11
-21 -17 -23 -17 -5 -75 -75 -68 -82 3 -3 1 -6 -6 -6 -7 0 -9 -4 -6 -10 3 -5 1
-10 -4 -10 -6 0 -10 -3 -9 -7 1 -5 -8 -28 -19 -53 -11 -25 -27 -67 -34 -95
-17 -64 -17 -251 1 -307 14 -44 44 -78 70 -78 13 0 13 1 0 11 -11 8 -6 9 20 5
19 -2 44 -1 55 4 18 8 18 9 -5 9 -19 1 -21 4 -11 10 8 5 21 7 30 3 9 -3 13 -2
9 3 -8 9 15 35 31 35 6 0 11 4 11 9 0 5 25 29 55 54 30 24 53 46 51 48 -2 2 6
13 17 24 17 17 19 17 14 3 -10 -28 -1 -21 22 17 11 19 28 35 37 35 10 0 15 3
12 6 -7 6 15 29 105 108 37 32 65 62 62 66 -3 5 5 6 17 3 17 -3 19 -2 9 5 -11
8 -9 11 8 17 20 6 47 42 43 56 -1 4 8 5 18 2 14 -4 20 0 20 11 0 9 4 16 9 16
4 0 20 12 35 26 14 15 26 24 26 20 0 -4 32 26 70 65 71 73 85 99 53 99 -15 0
-16 -2 -3 -10 11 -7 11 -10 2 -10 -7 0 -35 -22 -62 -50 -30 -31 -50 -45 -53
-37 -3 6 -6 1 -6 -13 -1 -20 -3 -22 -11 -10 -8 13 -10 12 -10 -3 0 -23 -23
-47 -44 -47 -10 0 -16 -10 -17 -27 -1 -17 -3 -21 -6 -11 -3 14 -20 2 -73 -52
-38 -39 -74 -70 -80 -70 -6 0 -8 -4 -5 -10 3 -6 -4 -10 -17 -11 -13 0 -18 -3
-11 -6 14 -5 -28 -53 -47 -53 -6 0 -42 -31 -80 -70 -38 -38 -77 -70 -87 -70
-11 0 -14 -3 -7 -8 7 -5 3 -14 -12 -29 -15 -15 -24 -18 -27 -10 -3 7 -6 2 -6
-10 -1 -17 -7 -23 -23 -23 -19 0 -20 -2 -8 -10 12 -8 10 -10 -10 -10 -20 0
-22 -2 -10 -10 13 -8 12 -10 -3 -10 -11 0 -32 -13 -47 -30 -21 -23 -37 -30
-64 -30 -35 0 -36 1 -36 40 0 22 -4 40 -10 40 -6 0 -10 47 -10 120 0 73 4 120
10 120 6 0 10 24 10 53 0 37 3 48 10 37 7 -11 10 -7 10 18 0 20 4 31 10 27 6
-4 10 6 10 22 0 22 2 25 10 13 7 -11 10 -6 10 20 0 26 3 31 10 20 8 -13 10
-12 10 3 0 21 164 187 185 187 8 0 15 5 15 10 0 6 9 10 20 10 11 0 20 5 20 10
0 6 9 10 20 10 11 0 20 5 20 10 0 6 9 10 20 10 11 0 20 5 20 10 0 6 21 10 48
11 38 1 42 2 22 9 -14 5 66 8 185 8 119 0 199 -3 185 -8 -24 -8 -23 -8 8 -9
47 -1 40 22 -12 41 -50 18 -311 25 -321 8z m213 -17 c-32 -2 -84 -2 -115 0
-32 2 -6 3 57 3 63 0 89 -1 58 -3z"/>
<path d="M805 2110 c3 -5 8 -10 11 -10 2 0 4 5 4 10 0 6 -5 10 -11 10 -5 0 -7
-4 -4 -10z"/>
<path d="M2408 2053 c7 -3 16 -2 19 1 4 3 -2 6 -13 5 -11 0 -14 -3 -6 -6z"/>
<path d="M885 2030 c3 -5 8 -10 11 -10 2 0 4 5 4 10 0 6 -5 10 -11 10 -5 0 -7
-4 -4 -10z"/>
<path d="M968 1983 c7 -3 16 -2 19 1 4 3 -2 6 -13 5 -11 0 -14 -3 -6 -6z"/>
<path d="M2725 1970 c-3 -5 -1 -10 4 -10 6 0 11 5 11 10 0 6 -2 10 -4 10 -3 0
-8 -4 -11 -10z"/>
<path d="M361 1924 c0 -11 3 -14 6 -6 3 7 2 16 -1 19 -3 4 -6 -2 -5 -13z"/>
<path d="M405 1930 c3 -5 8 -10 11 -10 2 0 4 5 4 10 0 6 -5 10 -11 10 -5 0 -7
-4 -4 -10z"/>
<path d="M471 1924 c0 -11 3 -14 6 -6 3 7 2 16 -1 19 -3 4 -6 -2 -5 -13z"/>
<path d="M2651 1924 c0 -11 3 -14 6 -6 3 7 2 16 -1 19 -3 4 -6 -2 -5 -13z"/>
<path d="M2670 1920 c0 -5 5 -10 11 -10 5 0 7 5 4 10 -3 6 -8 10 -11 10 -2 0
-4 -4 -4 -10z"/>
<path d="M2561 1814 c0 -11 3 -14 6 -6 3 7 2 16 -1 19 -3 4 -6 -2 -5 -13z"/>
<path d="M472 1790 c0 -14 2 -19 5 -12 2 6 2 18 0 25 -3 6 -5 1 -5 -13z"/>
<path d="M1128 1793 c7 -3 16 -2 19 1 4 3 -2 6 -13 5 -11 0 -14 -3 -6 -6z"/>
<path d="M417 1779 c7 -7 15 -10 18 -7 3 3 -2 9 -12 12 -14 6 -15 5 -6 -5z"/>
<path d="M2485 1770 c-3 -5 -1 -10 4 -10 6 0 11 5 11 10 0 6 -2 10 -4 10 -3 0
-8 -4 -11 -10z"/>
<path d="M1276 1711 c-4 -5 -2 -12 3 -15 5 -4 12 -2 15 3 4 5 2 12 -3 15 -5 4
-12 2 -15 -3z"/>
<path d="M2046 1445 c4 -8 8 -15 10 -15 2 0 4 7 4 15 0 8 -4 15 -10 15 -5 0
-7 -7 -4 -15z"/>
<path d="M728 1373 c7 -3 16 -2 19 1 4 3 -2 6 -13 5 -11 0 -14 -3 -6 -6z"/>
<path d="M1638 1303 c7 -3 16 -2 19 1 4 3 -2 6 -13 5 -11 0 -14 -3 -6 -6z"/>
<path d="M820 1296 c0 -2 13 -6 29 -8 17 -2 28 -1 25 4 -5 8 -54 12 -54 4z"/>
<path d="M973 1293 c9 -2 23 -2 30 0 6 3 -1 5 -18 5 -16 0 -22 -2 -12 -5z"/>
<path d="M1408 1133 c6 -2 18 -2 25 0 6 3 1 5 -13 5 -14 0 -19 -2 -12 -5z"/>
<path d="M1838 1108 c17 -8 26 -8 34 0 9 9 4 12 -22 11 -33 0 -34 -1 -12 -11z"/>
<path d="M160 967 c-3 -2 -27 -7 -55 -10 -75 -8 -99 -25 -103 -70 -4 -40 14
-97 29 -97 5 0 9 -8 9 -18 0 -11 9 -27 20 -37 11 -10 20 -22 20 -27 0 -8 39
-60 99 -134 6 -7 7 -15 4 -18 -4 -3 1 -6 10 -6 10 0 17 -4 17 -10 0 -14 38
-50 53 -50 8 0 7 -4 -3 -10 -13 -9 -13 -10 0 -11 8 -1 18 -1 23 0 4 0 6 -3 5
-8 -4 -10 72 -81 86 -81 6 -1 22 -14 36 -30 13 -17 29 -30 36 -30 7 0 14 -7
18 -15 3 -8 9 -14 13 -13 8 3 53 -26 83 -54 10 -9 21 -13 25 -10 4 4 12 0 18
-8 14 -17 58 -44 100 -61 15 -6 27 -15 27 -20 0 -5 5 -9 11 -9 5 0 8 4 5 8 -3
5 1 9 9 9 8 0 12 -3 10 -7 -3 -4 21 -15 53 -25 31 -9 66 -23 78 -30 28 -18
129 -46 186 -52 27 -3 46 -9 43 -13 -17 -27 610 -24 700 3 28 9 91 27 140 42
50 14 103 32 120 40 16 7 33 11 37 9 4 -3 9 5 9 18 1 16 3 18 6 6 4 -16 7 -16
27 -3 12 8 26 12 29 8 4 -3 7 -1 7 5 0 6 14 13 30 17 17 4 30 11 30 16 0 6 5
7 12 3 7 -4 8 -3 4 4 -4 7 -1 12 9 12 9 0 21 5 28 10 7 6 37 26 67 45 30 19
60 39 67 45 7 5 15 10 19 10 20 0 294 263 294 282 0 4 5 8 10 8 6 0 10 6 10
13 0 7 8 22 18 33 36 39 63 84 57 94 -4 6 -1 9 7 8 8 -2 14 8 16 25 2 15 -1
27 -7 27 -6 0 -11 -9 -11 -20 0 -11 -4 -20 -10 -20 -5 0 -10 -7 -10 -16 0 -8
-5 -12 -10 -9 -6 4 -10 -6 -10 -22 0 -22 -2 -25 -10 -13 -8 12 -10 10 -10 -8
0 -13 -4 -20 -10 -17 -5 3 -10 -1 -10 -10 0 -9 -23 -39 -51 -66 -28 -27 -45
-49 -39 -49 7 0 6 -6 -4 -15 -8 -8 -23 -15 -33 -15 -15 0 -16 -2 -3 -10 12 -8
10 -10 -10 -10 -14 0 -20 -3 -14 -8 9 -5 8 -10 -1 -19 -11 -10 -15 -10 -18 0
-3 7 -6 2 -6 -10 -1 -16 -7 -23 -21 -23 -12 0 -20 -7 -20 -17 0 -9 -3 -14 -6
-10 -4 3 -24 -12 -44 -33 -21 -22 -45 -40 -52 -40 -7 0 -20 -9 -28 -20 -8 -11
-21 -20 -30 -20 -9 0 -22 -9 -30 -20 -8 -11 -22 -20 -32 -20 -10 0 -18 -4 -18
-10 0 -5 -10 -10 -22 -10 -19 0 -20 -2 -8 -10 12 -8 11 -10 -7 -10 -13 0 -23
-4 -23 -10 0 -5 -15 -10 -32 -11 -31 -1 -32 -1 -8 -9 21 -7 18 -8 -20 -9 -33
-1 -41 -4 -30 -11 11 -7 7 -10 -17 -10 -18 0 -33 -4 -33 -10 0 -5 -9 -10 -20
-10 -11 0 -20 -4 -20 -10 0 -5 -17 -10 -37 -10 -28 0 -34 -3 -23 -10 11 -7 3
-10 -30 -10 -33 0 -41 -3 -30 -10 11 -7 1 -10 -35 -11 -40 -1 -45 -3 -25 -9
18 -6 6 -9 -45 -10 -55 -2 -63 -4 -40 -10 21 -5 2 -8 -65 -10 -67 -2 -86 -5
-65 -10 17 -4 -87 -7 -230 -7 -143 0 -240 3 -215 7 39 6 33 7 -37 8 -48 1 -83
6 -83 12 0 6 -24 10 -52 10 -38 0 -49 3 -38 10 11 7 4 10 -27 10 -24 0 -43 5
-43 10 0 6 -19 10 -42 11 -33 0 -38 2 -23 9 16 7 12 9 -18 9 -23 1 -36 5 -32
11 4 6 -5 10 -19 10 -14 0 -26 5 -26 10 0 6 -9 10 -20 10 -11 0 -20 5 -20 10
0 6 -17 10 -37 11 -31 0 -34 2 -18 9 16 7 14 9 -15 9 -26 1 -31 4 -20 11 12 8
11 10 -7 10 -13 0 -23 5 -23 10 0 6 -9 10 -20 10 -11 0 -20 5 -20 10 0 6 -9
10 -20 10 -11 0 -20 5 -20 10 0 6 -7 10 -16 10 -9 0 -29 14 -44 30 -15 17 -36
30 -47 30 -15 0 -16 2 -3 10 12 8 11 10 -5 10 -11 0 -27 9 -35 20 -8 11 -24
20 -35 20 -16 0 -17 2 -5 10 13 8 12 10 -3 10 -24 0 -47 23 -47 47 0 15 -2 16
-10 3 -8 -12 -10 -11 -10 8 0 13 -6 22 -16 22 -21 0 -44 24 -44 47 0 15 -2 16
-10 3 -8 -13 -10 -12 -10 3 0 11 -13 32 -30 47 -17 15 -30 34 -30 42 0 7 -9
20 -20 28 -11 8 -20 24 -20 35 0 16 -2 17 -10 5 -8 -12 -10 -11 -10 8 0 12 -4
22 -10 22 -5 0 -10 10 -10 23 0 18 -2 19 -10 7 -8 -12 -10 -11 -10 8 0 12 -4
22 -10 22 -5 0 -10 12 -11 28 0 24 -1 25 -9 7 -7 -16 -9 -12 -9 18 -1 48 17
67 66 68 34 1 35 2 13 9 -14 4 597 8 1358 9 915 1 1382 -2 1382 -9 0 -5 9 -10
20 -10 29 0 25 19 -7 32 -21 9 -379 13 -1358 16 -731 2 -1332 2 -1335 -1z"/>
<path d="M306 585 c-9 -26 -7 -32 5 -12 6 10 9 21 6 23 -2 3 -7 -2 -11 -11z"/>
<path d="M2556 503 c-6 -14 -5 -15 5 -6 7 7 10 15 7 18 -3 3 -9 -2 -12 -12z"/>
<path d="M2341 304 c0 -11 3 -14 6 -6 3 7 2 16 -1 19 -3 4 -6 -2 -5 -13z"/>
<path d="M888 163 c7 -3 16 -2 19 1 4 3 -2 6 -13 5 -11 0 -14 -3 -6 -6z"/>
<path d="M1608 83 c6 -2 18 -2 25 0 6 3 1 5 -13 5 -14 0 -19 -2 -12 -5z"/>
<path d="M1243 73 c9 -2 23 -2 30 0 6 3 -1 5 -18 5 -16 0 -22 -2 -12 -5z"/>
<path d="M1978 53 c7 -3 16 -2 19 1 4 3 -2 6 -13 5 -11 0 -14 -3 -6 -6z"/>
<path d="M798 18 c6 -6 18 -8 28 -6 14 3 12 5 -9 10 -19 3 -25 2 -19 -4z"/>
</g>
</svg>
